<?xml version="1.0" encoding="UTF-8"?>
<svg width="25" height="25" id="_Слой_1" data-name="Слой 1" xmlns="http://www.w3.org/2000/svg" viewBox="0 0 19 17">
  <path d="M11.98,17c.56,0,.6-.6,.99-1,.39-.4,.99-.43,.99-1s-.6-1.59-.99-1.99c-.39-.4-.44,0-.99,0s-1.59-.4-1.98,0c-.39,.4,0,1.43,0,1.99s-.39,.6,0,1c.39,.4,1.43,1,1.98,1Zm-7.94,0c.56,0,1.59-.6,1.98-1,.39-.4,0-.43,0-1s.39-1.59,0-1.99c-.39-.4-1.43,0-1.98,0s-.6-.4-.99,0c-.39,.4-.99,1.43-.99,1.99s.6,.6,.99,1c.39,.4,.44,1,.99,1ZM17.93,2.07c.26,0,.81,.19,.99,0,.18-.19,0-.73,0-1s.18-.81,0-1c-.18-.19-.73,0-.99,0h-.99c-.95,0-1.78,1.06-1.98,1.99l-1.98,5.97c-.21,.93-.05,1-.99,1H4.04L2.06,3.07H11.98c.26-.01,.81,.19,.99,0,.18-.19,0-.73,0-1s.18-.81,0-1c-.18-.19-.73,.01-.99,0H2.06c-.31,0-.72-.14-.99,0-.28,.14-.8,.75-.99,1-.19,.24,.06,.69,0,1C0,3.37,0,3.76,.07,4.06l1.98,5.97c.11,.44-.35,.72,0,1,.35,.28,1.53,0,1.98,0h7.94c.92,0,1.27-.42,1.98-1,.72-.58,.79-1.09,.99-1.99l1.98-5.97h.99Z"/>
</svg>